<svg width="49" height="49" viewBox="0 0 49 49" fill="none" xmlns="http://www.w3.org/2000/svg">
<rect width="49" height="49" rx="8" fill="white"/>
<path d="M15.2852 37V11.4062H23.1602C25.4102 11.4062 27.4199 11.916 29.1895 12.9355C30.9707 13.9434 32.3594 15.3848 33.3555 17.2598C34.3516 19.123 34.8496 21.2441 34.8496 23.623V24.8008C34.8496 27.1797 34.3574 29.2949 33.373 31.1465C32.4004 32.998 31.0234 34.4336 29.2422 35.4531C27.4609 36.4727 25.4512 36.9883 23.2129 37H15.2852ZM20.5586 15.6777V32.7637H23.1074C25.1699 32.7637 26.7461 32.0898 27.8359 30.7422C28.9258 29.3945 29.4824 27.4668 29.5059 24.959V23.6055C29.5059 21.0039 28.9668 19.0352 27.8887 17.6992C26.8105 16.3516 25.2344 15.6777 23.1602 15.6777H20.5586Z" fill="#1E1E1E"/>
<path d="M34.2148 36.5039C34.2148 35.6953 34.4844 35.0391 35.0234 34.5352C35.5742 34.0312 36.2598 33.7793 37.0801 33.7793C37.9121 33.7793 38.5977 34.0312 39.1367 34.5352C39.6875 35.0391 39.9629 35.6953 39.9629 36.5039C39.9629 37.3008 39.6934 37.9512 39.1543 38.4551C38.6152 38.9473 37.9238 39.1934 37.0801 39.1934C36.248 39.1934 35.5625 38.9473 35.0234 38.4551C34.4844 37.9512 34.2148 37.3008 34.2148 36.5039Z" fill="#0099BE"/>
</svg>
