<svg width="30" height="30" viewBox="0 0 30 30" fill="none" xmlns="http://www.w3.org/2000/svg">
<mask id="path-1-inside-1" fill="white">
<path d="M26.25 1.875C26.7473 1.875 27.2242 2.07254 27.5758 2.42417C27.9275 2.77581 28.125 3.25272 28.125 3.75V26.25C28.125 26.7473 27.9275 27.2242 27.5758 27.5758C27.2242 27.9275 26.7473 28.125 26.25 28.125H3.75C3.25272 28.125 2.77581 27.9275 2.42417 27.5758C2.07254 27.2242 1.875 26.7473 1.875 26.25V3.75C1.875 3.25272 2.07254 2.77581 2.42417 2.42417C2.77581 2.07254 3.25272 1.875 3.75 1.875H26.25ZM3.75 0C2.75544 0 1.80161 0.395088 1.09835 1.09835C0.395088 1.80161 0 2.75544 0 3.75L0 26.25C0 27.2446 0.395088 28.1984 1.09835 28.9016C1.80161 29.6049 2.75544 30 3.75 30H26.25C27.2446 30 28.1984 29.6049 28.9016 28.9016C29.6049 28.1984 30 27.2446 30 26.25V3.75C30 2.75544 29.6049 1.80161 28.9016 1.09835C28.1984 0.395088 27.2446 0 26.25 0L3.75 0Z"/>
</mask>
<path d="M26.25 1.875C26.7473 1.875 27.2242 2.07254 27.5758 2.42417C27.9275 2.77581 28.125 3.25272 28.125 3.75V26.25C28.125 26.7473 27.9275 27.2242 27.5758 27.5758C27.2242 27.9275 26.7473 28.125 26.25 28.125H3.75C3.25272 28.125 2.77581 27.9275 2.42417 27.5758C2.07254 27.2242 1.875 26.7473 1.875 26.25V3.75C1.875 3.25272 2.07254 2.77581 2.42417 2.42417C2.77581 2.07254 3.25272 1.875 3.75 1.875H26.25ZM3.75 0C2.75544 0 1.80161 0.395088 1.09835 1.09835C0.395088 1.80161 0 2.75544 0 3.75L0 26.25C0 27.2446 0.395088 28.1984 1.09835 28.9016C1.80161 29.6049 2.75544 30 3.75 30H26.25C27.2446 30 28.1984 29.6049 28.9016 28.9016C29.6049 28.1984 30 27.2446 30 26.25V3.75C30 2.75544 29.6049 1.80161 28.9016 1.09835C28.1984 0.395088 27.2446 0 26.25 0L3.75 0Z" fill="black"/>
<path d="M26.25 1.875V-3.125V1.875ZM1.875 26.25H-3.125H1.875ZM3.75 1.875V-3.125V1.875ZM3.75 0V-5V0ZM0 3.75H-5H0ZM0 26.25H-5H0ZM26.25 6.875C25.4212 6.875 24.6263 6.54576 24.0403 5.95971L31.1114 -1.11136C29.822 -2.40067 28.0734 -3.125 26.25 -3.125V6.875ZM24.0403 5.95971C23.4542 5.37366 23.125 4.5788 23.125 3.75H33.125C33.125 1.92664 32.4007 0.177952 31.1114 -1.11136L24.0403 5.95971ZM23.125 3.75V26.25H33.125V3.75H23.125ZM23.125 26.25C23.125 25.4212 23.4542 24.6263 24.0403 24.0403L31.1114 31.1114C32.4007 29.822 33.125 28.0734 33.125 26.25H23.125ZM24.0403 24.0403C24.6263 23.4542 25.4212 23.125 26.25 23.125V33.125C28.0734 33.125 29.822 32.4007 31.1114 31.1114L24.0403 24.0403ZM26.25 23.125H3.75V33.125H26.25V23.125ZM3.75 23.125C4.5788 23.125 5.37366 23.4542 5.95971 24.0403L-1.11136 31.1114C0.177952 32.4007 1.92664 33.125 3.75 33.125V23.125ZM5.95971 24.0403C6.54576 24.6263 6.875 25.4212 6.875 26.25H-3.125C-3.125 28.0734 -2.40067 29.822 -1.11136 31.1114L5.95971 24.0403ZM6.875 26.25V3.75H-3.125V26.25H6.875ZM6.875 3.75C6.875 4.5788 6.54576 5.37366 5.95971 5.95971L-1.11136 -1.11136C-2.40067 0.177954 -3.125 1.92664 -3.125 3.75H6.875ZM5.95971 5.95971C5.37366 6.54576 4.5788 6.875 3.75 6.875V-3.125C1.92664 -3.125 0.177954 -2.40067 -1.11136 -1.11136L5.95971 5.95971ZM3.75 6.875H26.25V-3.125H3.75V6.875ZM3.75 -5C1.42936 -5 -0.796241 -4.07813 -2.43718 -2.43718L4.63388 4.63388C4.39946 4.8683 4.08152 5 3.75 5V-5ZM-2.43718 -2.43718C-4.07813 -0.796241 -5 1.42936 -5 3.75H5C5 4.08152 4.8683 4.39946 4.63388 4.63388L-2.43718 -2.43718ZM-5 3.75V26.25H5V3.75H-5ZM-5 26.25C-5 28.5706 -4.07813 30.7962 -2.43718 32.4372L4.63388 25.3661C4.8683 25.6005 5 25.9185 5 26.25H-5ZM-2.43718 32.4372C-0.796242 34.0781 1.42935 35 3.75 35V25C4.08152 25 4.39946 25.1317 4.63388 25.3661L-2.43718 32.4372ZM3.75 35H26.25V25H3.75V35ZM26.25 35C28.5706 35 30.7962 34.0781 32.4372 32.4372L25.3661 25.3661C25.6005 25.1317 25.9185 25 26.25 25V35ZM32.4372 32.4372C34.0781 30.7962 35 28.5706 35 26.25H25C25 25.9185 25.1317 25.6005 25.3661 25.3661L32.4372 32.4372ZM35 26.25V3.75H25V26.25H35ZM35 3.75C35 1.42935 34.0781 -0.796242 32.4372 -2.43718L25.3661 4.63388C25.1317 4.39946 25 4.08152 25 3.75H35ZM32.4372 -2.43718C30.7962 -4.07813 28.5706 -5 26.25 -5V5C25.9185 5 25.6005 4.8683 25.3661 4.63388L32.4372 -2.43718ZM26.25 -5H3.75V5H26.25V-5Z" fill="black" mask="url(#path-1-inside-1)"/>
<mask id="path-3-inside-2" fill="white">
<path d="M15 7.5C15.2486 7.5 15.4871 7.59877 15.6629 7.77459C15.8387 7.9504 15.9375 8.18886 15.9375 8.4375V14.0625H21.5625C21.8111 14.0625 22.0496 14.1613 22.2254 14.3371C22.4012 14.5129 22.5 14.7514 22.5 15C22.5 15.2486 22.4012 15.4871 22.2254 15.6629C22.0496 15.8387 21.8111 15.9375 21.5625 15.9375H15.9375V21.5625C15.9375 21.8111 15.8387 22.0496 15.6629 22.2254C15.4871 22.4012 15.2486 22.5 15 22.5C14.7514 22.5 14.5129 22.4012 14.3371 22.2254C14.1613 22.0496 14.0625 21.8111 14.0625 21.5625V15.9375H8.4375C8.18886 15.9375 7.9504 15.8387 7.77459 15.6629C7.59877 15.4871 7.5 15.2486 7.5 15C7.5 14.7514 7.59877 14.5129 7.77459 14.3371C7.9504 14.1613 8.18886 14.0625 8.4375 14.0625H14.0625V8.4375C14.0625 8.18886 14.1613 7.9504 14.3371 7.77459C14.5129 7.59877 14.7514 7.5 15 7.5Z"/>
</mask>
<path d="M15 7.5C15.2486 7.5 15.4871 7.59877 15.6629 7.77459C15.8387 7.9504 15.9375 8.18886 15.9375 8.4375V14.0625H21.5625C21.8111 14.0625 22.0496 14.1613 22.2254 14.3371C22.4012 14.5129 22.5 14.7514 22.5 15C22.5 15.2486 22.4012 15.4871 22.2254 15.6629C22.0496 15.8387 21.8111 15.9375 21.5625 15.9375H15.9375V21.5625C15.9375 21.8111 15.8387 22.0496 15.6629 22.2254C15.4871 22.4012 15.2486 22.5 15 22.5C14.7514 22.5 14.5129 22.4012 14.3371 22.2254C14.1613 22.0496 14.0625 21.8111 14.0625 21.5625V15.9375H8.4375C8.18886 15.9375 7.9504 15.8387 7.77459 15.6629C7.59877 15.4871 7.5 15.2486 7.5 15C7.5 14.7514 7.59877 14.5129 7.77459 14.3371C7.9504 14.1613 8.18886 14.0625 8.4375 14.0625H14.0625V8.4375C14.0625 8.18886 14.1613 7.9504 14.3371 7.77459C14.5129 7.59877 14.7514 7.5 15 7.5Z" fill="black"/>
<path d="M15.9375 14.0625H13.4375V16.5625H15.9375V14.0625ZM15.9375 15.9375V13.4375H13.4375V15.9375H15.9375ZM14.0625 15.9375H16.5625V13.4375H14.0625V15.9375ZM7.5 15H10H7.5ZM14.0625 14.0625V16.5625H16.5625V14.0625H14.0625ZM15 10C14.5856 10 14.1882 9.83538 13.8951 9.54235L17.4307 6.00682C16.786 5.36216 15.9117 5 15 5V10ZM13.8951 9.54235C13.6021 9.24933 13.4375 8.8519 13.4375 8.4375H18.4375C18.4375 7.52582 18.0753 6.65148 17.4307 6.00682L13.8951 9.54235ZM13.4375 8.4375V14.0625H18.4375V8.4375H13.4375ZM15.9375 16.5625H21.5625V11.5625H15.9375V16.5625ZM21.5625 16.5625C21.1481 16.5625 20.7507 16.3979 20.4576 16.1049L23.9932 12.5693C23.3485 11.9247 22.4742 11.5625 21.5625 11.5625V16.5625ZM20.4576 16.1049C20.1646 15.8118 20 15.4144 20 15H25C25 14.0883 24.6378 13.214 23.9932 12.5693L20.4576 16.1049ZM20 15C20 14.5856 20.1646 14.1882 20.4576 13.8951L23.9932 17.4307C24.6378 16.786 25 15.9117 25 15H20ZM20.4576 13.8951C20.7507 13.6021 21.1481 13.4375 21.5625 13.4375V18.4375C22.4742 18.4375 23.3485 18.0753 23.9932 17.4307L20.4576 13.8951ZM21.5625 13.4375H15.9375V18.4375H21.5625V13.4375ZM13.4375 15.9375V21.5625H18.4375V15.9375H13.4375ZM13.4375 21.5625C13.4375 21.1481 13.6021 20.7507 13.8951 20.4576L17.4307 23.9932C18.0753 23.3485 18.4375 22.4742 18.4375 21.5625H13.4375ZM13.8951 20.4576C14.1882 20.1646 14.5856 20 15 20V25C15.9117 25 16.786 24.6378 17.4307 23.9932L13.8951 20.4576ZM15 20C15.4144 20 15.8118 20.1646 16.1049 20.4576L12.5693 23.9932C13.214 24.6378 14.0883 25 15 25V20ZM16.1049 20.4576C16.3979 20.7507 16.5625 21.1481 16.5625 21.5625H11.5625C11.5625 22.4742 11.9247 23.3485 12.5693 23.9932L16.1049 20.4576ZM16.5625 21.5625V15.9375H11.5625V21.5625H16.5625ZM14.0625 13.4375H8.4375V18.4375H14.0625V13.4375ZM8.4375 13.4375C8.8519 13.4375 9.24933 13.6021 9.54235 13.8951L6.00682 17.4307C6.65148 18.0753 7.52582 18.4375 8.4375 18.4375V13.4375ZM9.54235 13.8951C9.83538 14.1882 10 14.5856 10 15H5C5 15.9117 5.36216 16.786 6.00682 17.4307L9.54235 13.8951ZM10 15C10 15.4144 9.83538 15.8118 9.54235 16.1049L6.00682 12.5693C5.36217 13.214 5 14.0883 5 15H10ZM9.54235 16.1049C9.24933 16.3979 8.8519 16.5625 8.4375 16.5625V11.5625C7.52582 11.5625 6.65148 11.9247 6.00682 12.5693L9.54235 16.1049ZM8.4375 16.5625H14.0625V11.5625H8.4375V16.5625ZM16.5625 14.0625V8.4375H11.5625V14.0625H16.5625ZM16.5625 8.4375C16.5625 8.8519 16.3979 9.24933 16.1049 9.54235L12.5693 6.00682C11.9247 6.65148 11.5625 7.52582 11.5625 8.4375H16.5625ZM16.1049 9.54235C15.8118 9.83538 15.4144 10 15 10V5C14.0883 5 13.214 5.36217 12.5693 6.00682L16.1049 9.54235Z" fill="black" mask="url(#path-3-inside-2)"/>
</svg>
