<svg width="30" height="30" viewBox="0 0 30 30" fill="none" xmlns="http://www.w3.org/2000/svg">
<path d="M16.5909 23.75C21.3046 23.75 23.6621 23.75 25.1259 22.285C26.5909 20.8213 26.5909 18.4638 26.5909 13.75C26.5909 9.03625 26.5909 6.67875 25.1259 5.215C23.6621 3.75 21.3046 3.75 16.5909 3.75H11.5909C6.87713 3.75 4.51963 3.75 3.05588 5.215C1.59088 6.67875 1.59088 9.03625 1.59088 13.75C1.59088 18.4638 1.59088 20.8213 3.05588 22.285C3.87213 23.1025 4.96588 23.4638 6.59088 23.6225" stroke="black" stroke-width="2.5" stroke-linecap="round" stroke-linejoin="round"/>
<path d="M14.0909 13.75V13.7639" stroke="black" stroke-width="2.5" stroke-linecap="round"/>
<path d="M7.84088 13.75V13.7639" stroke="black" stroke-width="2.5" stroke-linecap="round"/>
<path d="M20.3409 13.75V13.7639" stroke="black" stroke-width="2.5" stroke-linecap="round"/>
<path d="M16.5909 23.75C15.0459 23.75 13.3434 24.375 11.7896 25.1813C9.29213 26.4775 8.04338 27.1263 7.42838 26.7125C6.81338 26.3 6.92963 25.0188 7.16338 22.4575L7.21588 21.875" stroke="black" stroke-width="2.5" stroke-linecap="round"/>
</svg>
