<svg width="30" height="30" viewBox="0 0 30 30" fill="none" xmlns="http://www.w3.org/2000/svg">
<path d="M3.75 5.76172C3.75 4.76716 4.14509 3.81333 4.84835 3.11007C5.55161 2.40681 6.50544 2.01172 7.5 2.01172C8.49456 2.01172 9.44839 2.40681 10.1517 3.11007C10.8549 3.81333 11.25 4.76716 11.25 5.76172C11.25 6.75628 10.8549 7.71011 10.1517 8.41337C9.44839 9.11663 8.49456 9.51172 7.5 9.51172C6.50544 9.51172 5.55161 9.11663 4.84835 8.41337C4.14509 7.71011 3.75 6.75628 3.75 5.76172ZM7.5 3.88672C7.00272 3.88672 6.52581 4.08426 6.17418 4.43589C5.82254 4.78752 5.625 5.26444 5.625 5.76172C5.625 6.259 5.82254 6.73591 6.17418 7.08754C6.52581 7.43917 7.00272 7.63672 7.5 7.63672C7.99728 7.63672 8.47419 7.43917 8.82582 7.08754C9.17746 6.73591 9.375 6.259 9.375 5.76172C9.375 5.26444 9.17746 4.78752 8.82582 4.43589C8.47419 4.08426 7.99728 3.88672 7.5 3.88672Z" fill="black"/>
<path d="M16.4606 8.73162C16.0677 8.43198 15.738 8.05767 15.4903 7.6302C15.2426 7.20273 15.0818 6.73053 15.0171 6.24072C14.9525 5.75091 14.9852 5.25315 15.1136 4.77604C15.2419 4.29894 15.4632 3.85189 15.7648 3.4606C16.0665 3.0693 16.4424 2.74146 16.8712 2.49591C17.2999 2.25037 17.7729 2.09197 18.263 2.0298C18.7532 1.96764 19.2507 2.00294 19.7272 2.13368C20.2036 2.26441 20.6495 2.48801 21.0393 2.79162C21.8067 3.4055 22.3025 4.29611 22.42 5.27181C22.5374 6.24751 22.2671 7.23033 21.6673 8.0088C21.0675 8.78726 20.1861 9.29915 19.2127 9.43433C18.2393 9.56951 17.2517 9.31718 16.4624 8.73162H16.4606ZM18.7499 3.88662C18.2527 3.88662 17.7757 4.08416 17.4241 4.43579C17.0725 4.78742 16.8749 5.26434 16.8749 5.76162C16.8749 6.2589 17.0725 6.73581 17.4241 7.08744C17.7757 7.43907 18.2527 7.63662 18.7499 7.63662C19.2472 7.63662 19.7241 7.43907 20.0758 7.08744C20.4274 6.73581 20.6249 6.2589 20.6249 5.76162C20.6249 5.26434 20.4274 4.78742 20.0758 4.43579C19.7241 4.08416 19.2472 3.88662 18.7499 3.88662Z" fill="black"/>
<path d="M2.8125 11.3867H7.81875C7.6125 11.9736 7.5 12.6055 7.5 13.2617H2.8125C2.56386 13.2617 2.3254 13.3605 2.14959 13.5363C1.97377 13.7121 1.875 13.9506 1.875 14.1992C1.875 15.7311 2.48438 16.8673 3.44625 17.6398C3.88875 17.9961 4.41937 18.283 5.01937 18.493C4.57877 18.9613 4.23923 19.5153 4.02187 20.1205C3.3925 19.8676 2.80322 19.5247 2.2725 19.1023C0.8625 17.968 0 16.2917 0 14.1992C0 13.4533 0.296316 12.7379 0.823762 12.2105C1.35121 11.683 2.06658 11.3867 2.8125 11.3867Z" fill="black"/>
<path d="M9.87766 11.3867C9.38038 12.2485 9.24581 13.2725 9.50356 14.2335C9.7613 15.1945 10.3903 16.0138 11.252 16.5111C12.1138 17.0083 13.1379 17.1429 14.0989 16.8852C15.0599 16.6274 15.8791 15.9985 16.3764 15.1367C16.8737 14.2749 17.0083 13.2509 16.7505 12.2899C16.4928 11.3288 15.8638 10.5096 15.002 10.0123C14.1403 9.51503 13.1162 9.38046 12.1552 9.6382C11.1942 9.89595 10.3749 10.5249 9.87766 11.3867ZM12.7052 11.4336C12.9799 11.3715 13.265 11.3719 13.5396 11.4348C13.8141 11.4977 14.071 11.6215 14.2913 11.797C14.5116 11.9725 14.6896 12.1952 14.8123 12.4487C14.935 12.7022 14.9992 12.98 15.0002 13.2617C15 13.6145 14.9003 13.9601 14.7126 14.2587C14.5249 14.5574 14.2567 14.7971 13.9388 14.9502C13.621 15.1033 13.2664 15.1636 12.9158 15.1242C12.5652 15.0848 12.2329 14.9473 11.9569 14.7275C11.681 14.5077 11.4727 14.2145 11.3559 13.8816C11.2391 13.5487 11.2186 13.1896 11.2967 12.8456C11.3749 12.5016 11.5485 12.1866 11.7976 11.9368C12.0468 11.687 12.3613 11.5126 12.7052 11.4336Z" fill="black"/>
<path d="M22.8036 17.6398C22.3612 17.9961 21.8305 18.283 21.2305 18.493C21.6705 18.9615 22.0094 19.5155 22.2262 20.1205C22.8637 19.8598 23.4543 19.5205 23.9774 19.1023C25.3874 17.968 26.2499 16.2917 26.2499 14.1992C26.2499 13.4533 25.9536 12.7379 25.4261 12.2105C24.8987 11.683 24.1833 11.3867 23.4374 11.3867H18.4312C18.6374 11.9736 18.7499 12.6055 18.7499 13.2617H23.4374C23.686 13.2617 23.9245 13.3605 24.1003 13.5363C24.2761 13.7121 24.3749 13.9506 24.3749 14.1992C24.3749 15.7311 23.7655 16.8673 22.8036 17.6398Z" fill="black"/>
<path d="M17.8125 18.8867C18.5584 18.8867 19.2738 19.183 19.8013 19.7105C20.3287 20.2379 20.625 20.9533 20.625 21.6992C20.625 23.7917 19.7644 25.468 18.3525 26.6024C16.9631 27.718 15.0994 28.2617 13.125 28.2617C11.1506 28.2617 9.28689 27.718 7.89751 26.6024C6.48751 25.468 5.62501 23.7917 5.62501 21.6992C5.62402 21.3296 5.69609 20.9634 5.83708 20.6218C5.97807 20.2801 6.1852 19.9696 6.44657 19.7083C6.70793 19.4469 7.01837 19.2398 7.36004 19.0988C7.70172 18.9578 8.06789 18.8857 8.43751 18.8867H17.8125ZM17.8125 20.7617H8.43751C8.18887 20.7617 7.95041 20.8605 7.7746 21.0363C7.59878 21.2121 7.50001 21.4506 7.50001 21.6992C7.50001 23.2311 8.10939 24.3674 9.07126 25.1399C10.0575 25.9311 11.475 26.3867 13.125 26.3867C14.775 26.3867 16.1925 25.9311 17.1788 25.1399C18.1406 24.3674 18.75 23.2311 18.75 21.6992C18.75 21.4506 18.6512 21.2121 18.4754 21.0363C18.2996 20.8605 18.0612 20.7617 17.8125 20.7617Z" fill="black"/>
</svg>
