<svg width="24" height="24" viewBox="0 0 24 24" fill="none" xmlns="http://www.w3.org/2000/svg">
<mask id="path-1-inside-1" fill="white">
<path d="M21 1.5C21.3978 1.5 21.7794 1.65804 22.0607 1.93934C22.342 2.22064 22.5 2.60218 22.5 3V21C22.5 21.3978 22.342 21.7794 22.0607 22.0607C21.7794 22.342 21.3978 22.5 21 22.5H3C2.60218 22.5 2.22064 22.342 1.93934 22.0607C1.65804 21.7794 1.5 21.3978 1.5 21V3C1.5 2.60218 1.65804 2.22064 1.93934 1.93934C2.22064 1.65804 2.60218 1.5 3 1.5H21ZM3 0C2.20435 0 1.44129 0.316071 0.87868 0.87868C0.316071 1.44129 0 2.20435 0 3L0 21C0 21.7957 0.316071 22.5587 0.87868 23.1213C1.44129 23.6839 2.20435 24 3 24H21C21.7957 24 22.5587 23.6839 23.1213 23.1213C23.6839 22.5587 24 21.7957 24 21V3C24 2.20435 23.6839 1.44129 23.1213 0.87868C22.5587 0.316071 21.7957 0 21 0L3 0Z"/>
</mask>
<path d="M21 1.5C21.3978 1.5 21.7794 1.65804 22.0607 1.93934C22.342 2.22064 22.5 2.60218 22.5 3V21C22.5 21.3978 22.342 21.7794 22.0607 22.0607C21.7794 22.342 21.3978 22.5 21 22.5H3C2.60218 22.5 2.22064 22.342 1.93934 22.0607C1.65804 21.7794 1.5 21.3978 1.5 21V3C1.5 2.60218 1.65804 2.22064 1.93934 1.93934C2.22064 1.65804 2.60218 1.5 3 1.5H21ZM3 0C2.20435 0 1.44129 0.316071 0.87868 0.87868C0.316071 1.44129 0 2.20435 0 3L0 21C0 21.7957 0.316071 22.5587 0.87868 23.1213C1.44129 23.6839 2.20435 24 3 24H21C21.7957 24 22.5587 23.6839 23.1213 23.1213C23.6839 22.5587 24 21.7957 24 21V3C24 2.20435 23.6839 1.44129 23.1213 0.87868C22.5587 0.316071 21.7957 0 21 0L3 0Z" fill="white"/>
<path d="M21 1.5V-3.5V1.5ZM1.5 21H-3.5H1.5ZM3 1.5V-3.5V1.5ZM3 0V-5V0ZM0 3H-5H0ZM0 21H-5H0ZM21 6.5C20.0717 6.5 19.1815 6.13125 18.5251 5.47487L25.5962 -1.59619C24.3772 -2.81518 22.7239 -3.5 21 -3.5V6.5ZM18.5251 5.47487C17.8687 4.8185 17.5 3.92826 17.5 3H27.5C27.5 1.27609 26.8152 -0.377209 25.5962 -1.59619L18.5251 5.47487ZM17.5 3V21H27.5V3H17.5ZM17.5 21C17.5 20.0717 17.8688 19.1815 18.5251 18.5251L25.5962 25.5962C26.8152 24.3772 27.5 22.7239 27.5 21H17.5ZM18.5251 18.5251C19.1815 17.8688 20.0717 17.5 21 17.5V27.5C22.7239 27.5 24.3772 26.8152 25.5962 25.5962L18.5251 18.5251ZM21 17.5H3V27.5H21V17.5ZM3 17.5C3.92826 17.5 4.8185 17.8687 5.47487 18.5251L-1.59619 25.5962C-0.377209 26.8152 1.27609 27.5 3 27.5V17.5ZM5.47487 18.5251C6.13125 19.1815 6.5 20.0717 6.5 21H-3.5C-3.5 22.7239 -2.81518 24.3772 -1.59619 25.5962L5.47487 18.5251ZM6.5 21V3H-3.5V21H6.5ZM6.5 3C6.5 3.92826 6.13125 4.8185 5.47487 5.47487L-1.59619 -1.59619C-2.81518 -0.377207 -3.5 1.27609 -3.5 3H6.5ZM5.47487 5.47487C4.8185 6.13125 3.92826 6.5 3 6.5V-3.5C1.27609 -3.5 -0.377207 -2.81518 -1.59619 -1.59619L5.47487 5.47487ZM3 6.5H21V-3.5H3V6.5ZM3 -5C0.878268 -5 -1.15656 -4.15715 -2.65685 -2.65685L4.41421 4.41421C4.03914 4.78929 3.53043 5 3 5V-5ZM-2.65685 -2.65685C-4.15715 -1.15656 -5 0.878268 -5 3H5C5 3.53043 4.78929 4.03914 4.41421 4.41421L-2.65685 -2.65685ZM-5 3V21H5V3H-5ZM-5 21C-5 23.1217 -4.15714 25.1566 -2.65685 26.6569L4.41421 19.5858C4.78929 19.9609 5 20.4696 5 21H-5ZM-2.65685 26.6569C-1.15656 28.1571 0.878266 29 3 29V19C3.53043 19 4.03914 19.2107 4.41421 19.5858L-2.65685 26.6569ZM3 29H21V19H3V29ZM21 29C23.1217 29 25.1566 28.1571 26.6569 26.6569L19.5858 19.5858C19.9609 19.2107 20.4696 19 21 19V29ZM26.6569 26.6569C28.1571 25.1566 29 23.1217 29 21H19C19 20.4696 19.2107 19.9609 19.5858 19.5858L26.6569 26.6569ZM29 21V3H19V21H29ZM29 3C29 0.878266 28.1571 -1.15656 26.6569 -2.65685L19.5858 4.41421C19.2107 4.03914 19 3.53043 19 3H29ZM26.6569 -2.65685C25.1566 -4.15714 23.1217 -5 21 -5V5C20.4696 5 19.9609 4.78929 19.5858 4.41421L26.6569 -2.65685ZM21 -5H3V5H21V-5Z" fill="white" mask="url(#path-1-inside-1)"/>
<mask id="path-3-inside-2" fill="white">
<path d="M12 6C12.1989 6 12.3897 6.07902 12.5303 6.21967C12.671 6.36032 12.75 6.55109 12.75 6.75V11.25H17.25C17.4489 11.25 17.6397 11.329 17.7803 11.4697C17.921 11.6103 18 11.8011 18 12C18 12.1989 17.921 12.3897 17.7803 12.5303C17.6397 12.671 17.4489 12.75 17.25 12.75H12.75V17.25C12.75 17.4489 12.671 17.6397 12.5303 17.7803C12.3897 17.921 12.1989 18 12 18C11.8011 18 11.6103 17.921 11.4697 17.7803C11.329 17.6397 11.25 17.4489 11.25 17.25V12.75H6.75C6.55109 12.75 6.36032 12.671 6.21967 12.5303C6.07902 12.3897 6 12.1989 6 12C6 11.8011 6.07902 11.6103 6.21967 11.4697C6.36032 11.329 6.55109 11.25 6.75 11.25H11.25V6.75C11.25 6.55109 11.329 6.36032 11.4697 6.21967C11.6103 6.07902 11.8011 6 12 6Z"/>
</mask>
<path d="M12 6C12.1989 6 12.3897 6.07902 12.5303 6.21967C12.671 6.36032 12.75 6.55109 12.75 6.75V11.25H17.25C17.4489 11.25 17.6397 11.329 17.7803 11.4697C17.921 11.6103 18 11.8011 18 12C18 12.1989 17.921 12.3897 17.7803 12.5303C17.6397 12.671 17.4489 12.75 17.25 12.75H12.75V17.25C12.75 17.4489 12.671 17.6397 12.5303 17.7803C12.3897 17.921 12.1989 18 12 18C11.8011 18 11.6103 17.921 11.4697 17.7803C11.329 17.6397 11.25 17.4489 11.25 17.25V12.75H6.75C6.55109 12.75 6.36032 12.671 6.21967 12.5303C6.07902 12.3897 6 12.1989 6 12C6 11.8011 6.07902 11.6103 6.21967 11.4697C6.36032 11.329 6.55109 11.25 6.75 11.25H11.25V6.75C11.25 6.55109 11.329 6.36032 11.4697 6.21967C11.6103 6.07902 11.8011 6 12 6Z" fill="white"/>
<path d="M12.75 11.25H10.25V13.75H12.75V11.25ZM12.75 12.75V10.25H10.25V12.75H12.75ZM11.25 12.75H13.75V10.25H11.25V12.75ZM6 12H8.5H6ZM11.25 11.25V13.75H13.75V11.25H11.25ZM12 8.5C11.5359 8.5 11.0908 8.31563 10.7626 7.98744L14.2981 4.4519C13.6886 3.84241 12.862 3.5 12 3.5V8.5ZM10.7626 7.98744C10.4344 7.65925 10.25 7.21412 10.25 6.75H15.25C15.25 5.88805 14.9076 5.0614 14.2981 4.4519L10.7626 7.98744ZM10.25 6.75V11.25H15.25V6.75H10.25ZM12.75 13.75H17.25V8.75H12.75V13.75ZM17.25 13.75C16.7859 13.75 16.3408 13.5656 16.0126 13.2374L19.5481 9.7019C18.9386 9.09241 18.112 8.75 17.25 8.75V13.75ZM16.0126 13.2374C15.6844 12.9092 15.5 12.4641 15.5 12H20.5C20.5 11.1381 20.1576 10.3114 19.5481 9.7019L16.0126 13.2374ZM15.5 12C15.5 11.5359 15.6844 11.0908 16.0126 10.7626L19.5481 14.2981C20.1576 13.6886 20.5 12.8619 20.5 12H15.5ZM16.0126 10.7626C16.3408 10.4344 16.7859 10.25 17.25 10.25V15.25C18.1119 15.25 18.9386 14.9076 19.5481 14.2981L16.0126 10.7626ZM17.25 10.25H12.75V15.25H17.25V10.25ZM10.25 12.75V17.25H15.25V12.75H10.25ZM10.25 17.25C10.25 16.7859 10.4344 16.3408 10.7626 16.0126L14.2981 19.5481C14.9076 18.9386 15.25 18.1119 15.25 17.25H10.25ZM10.7626 16.0126C11.0908 15.6844 11.5359 15.5 12 15.5V20.5C12.8619 20.5 13.6886 20.1576 14.2981 19.5481L10.7626 16.0126ZM12 15.5C12.4641 15.5 12.9092 15.6844 13.2374 16.0126L9.7019 19.5481C10.3114 20.1576 11.1381 20.5 12 20.5V15.5ZM13.2374 16.0126C13.5656 16.3408 13.75 16.7859 13.75 17.25H8.75C8.75 18.112 9.09241 18.9386 9.7019 19.5481L13.2374 16.0126ZM13.75 17.25V12.75H8.75V17.25H13.75ZM11.25 10.25H6.75V15.25H11.25V10.25ZM6.75 10.25C7.21412 10.25 7.65925 10.4344 7.98744 10.7626L4.4519 14.2981C5.0614 14.9076 5.88805 15.25 6.75 15.25V10.25ZM7.98744 10.7626C8.31563 11.0908 8.5 11.5359 8.5 12H3.5C3.5 12.862 3.84241 13.6886 4.4519 14.2981L7.98744 10.7626ZM8.5 12C8.5 12.4641 8.31562 12.9092 7.98744 13.2374L4.4519 9.7019C3.84241 10.3114 3.5 11.138 3.5 12H8.5ZM7.98744 13.2374C7.65925 13.5656 7.21413 13.75 6.75 13.75V8.75C5.88804 8.75 5.0614 9.09241 4.4519 9.7019L7.98744 13.2374ZM6.75 13.75H11.25V8.75H6.75V13.75ZM13.75 11.25V6.75H8.75V11.25H13.75ZM13.75 6.75C13.75 7.21413 13.5656 7.65925 13.2374 7.98744L9.7019 4.4519C9.09241 5.0614 8.75 5.88804 8.75 6.75H13.75ZM13.2374 7.98744C12.9092 8.31562 12.4641 8.5 12 8.5V3.5C11.138 3.5 10.3114 3.84241 9.7019 4.4519L13.2374 7.98744Z" fill="white" mask="url(#path-3-inside-2)"/>
</svg>
