<svg width="30" height="21" viewBox="0 0 30 21" fill="none" xmlns="http://www.w3.org/2000/svg">
<path d="M19.4964 1.25126e-06C22.2505 -0.00134245 24.8948 1.07959 26.8593 3.00978C28.8238 4.93997 29.9512 7.56483 29.9985 10.3185C30.0457 13.0722 29.0089 15.7342 27.1117 17.7306C25.2145 19.727 22.6088 20.8979 19.8563 20.991L19.4964 20.997H10.5036C7.74955 20.9984 5.10522 19.9174 3.14069 17.9872C1.17616 16.0571 0.0487646 13.4322 0.00154506 10.6785C-0.0456745 7.92483 0.991059 5.26286 2.88826 3.26645C4.78546 1.27004 7.39117 0.0990829 10.1437 0.00600068L10.5021 1.25126e-06H19.4949H19.4964ZM19.4964 2.24968H10.5036C8.34161 2.24512 6.26422 3.08958 4.71855 4.6013C3.17289 6.11302 2.28252 8.17115 2.23908 10.3327C2.19563 12.4943 3.00258 14.5866 4.48626 16.1592C5.96993 17.7318 8.01172 18.659 10.1722 18.7413L10.5036 18.7473H19.4964C21.6584 18.7519 23.7358 17.9075 25.2814 16.3957C26.8271 14.884 27.7175 12.8259 27.7609 10.6643C27.8044 8.50269 26.9974 6.41045 25.5137 4.83784C24.0301 3.26524 21.9883 2.338 19.8278 2.25568L19.4964 2.24968ZM9.00085 5.99915C9.29918 5.99915 9.58528 6.11766 9.79623 6.32861C10.0072 6.53956 10.1257 6.82567 10.1257 7.12399V9.37067H12.3754C12.6737 9.37067 12.9598 9.48918 13.1708 9.70013C13.3817 9.91108 13.5002 10.1972 13.5002 10.4955C13.5002 10.7938 13.3817 11.0799 13.1708 11.2909C12.9598 11.5018 12.6737 11.6204 12.3754 11.6204H10.1257V13.873C10.1257 14.1714 10.0072 14.4575 9.79623 14.6684C9.58528 14.8794 9.29918 14.9979 9.00085 14.9979C8.70252 14.9979 8.41642 14.8794 8.20547 14.6684C7.99452 14.4575 7.87601 14.1714 7.87601 13.873V11.6204H5.62633C5.47861 11.6204 5.33234 11.5913 5.19587 11.5347C5.0594 11.4782 4.9354 11.3953 4.83094 11.2909C4.72649 11.1864 4.64364 11.0624 4.58711 10.926C4.53058 10.7895 4.50149 10.6432 4.50149 10.4955C4.50149 10.3478 4.53058 10.2015 4.58711 10.0651C4.64364 9.92859 4.72649 9.80458 4.83094 9.70013C4.9354 9.59568 5.0594 9.51283 5.19587 9.4563C5.33234 9.39977 5.47861 9.37067 5.62633 9.37067H7.87601V7.12399C7.87601 6.82567 7.99452 6.53956 8.20547 6.32861C8.41642 6.11766 8.70252 5.99915 9.00085 5.99915ZM19.1244 11.2484C19.6216 11.2484 20.0985 11.4459 20.4501 11.7975C20.8016 12.1491 20.9991 12.6259 20.9991 13.1231C20.9991 13.6204 20.8016 14.0972 20.4501 14.4488C20.0985 14.8004 19.6216 14.9979 19.1244 14.9979C18.6272 14.9979 18.1504 14.8004 17.7988 14.4488C17.4472 14.0972 17.2497 13.6204 17.2497 13.1231C17.2497 12.6259 17.4472 12.1491 17.7988 11.7975C18.1504 11.4459 18.6272 11.2484 19.1244 11.2484ZM22.124 5.99915C22.6212 5.99915 23.098 6.19667 23.4496 6.54825C23.8012 6.89983 23.9987 7.37668 23.9987 7.87389C23.9987 8.3711 23.8012 8.84794 23.4496 9.19952C23.098 9.5511 22.6212 9.74862 22.124 9.74862C21.6268 9.74862 21.1499 9.5511 20.7984 9.19952C20.4468 8.84794 20.2493 8.3711 20.2493 7.87389C20.2493 7.37668 20.4468 6.89983 20.7984 6.54825C21.1499 6.19667 21.6268 5.99915 22.124 5.99915Z" fill="black"/>
</svg>
