<svg width="22" height="22" viewBox="0 0 22 22" fill="none" xmlns="http://www.w3.org/2000/svg">
<path d="M2.5 0C1.83841 0.0047127 1.20526 0.269618 0.737441 0.737441C0.269618 1.20526 0.0047127 1.83841 0 2.5V19.5C0 20.867 1.133 22 2.5 22H19.5C20.867 22 22 20.867 22 19.5V2.5C22 1.133 20.867 0 19.5 0H2.5ZM2.5 2H19.5C19.785 2 20 2.215 20 2.5V19.5C20 19.785 19.785 20 19.5 20H2.5C2.43393 20.0015 2.36824 19.9896 2.30689 19.965C2.24555 19.9404 2.18983 19.9036 2.1431 19.8569C2.09637 19.8102 2.05959 19.7544 2.035 19.6931C2.0104 19.6318 1.9985 19.5661 2 19.5V2.5C2 2.215 2.215 2 2.5 2ZM5.438 3.719C5.20884 3.71347 4.98088 3.75383 4.76754 3.83771C4.55421 3.92159 4.35981 4.04729 4.19577 4.20741C4.03174 4.36754 3.90139 4.55885 3.81239 4.7701C3.72339 4.98135 3.67754 5.20827 3.67754 5.4375C3.67754 5.66673 3.72339 5.89365 3.81239 6.1049C3.90139 6.31615 4.03174 6.50746 4.19577 6.66759C4.35981 6.82771 4.55421 6.95341 4.76754 7.03729C4.98088 7.12117 5.20884 7.16153 5.438 7.156C5.8866 7.14518 6.31318 6.95937 6.62663 6.63827C6.94008 6.31717 7.11554 5.88623 7.11554 5.4375C7.11554 4.98877 6.94008 4.55783 6.62663 4.23673C6.31318 3.91563 5.8866 3.72982 5.438 3.719ZM14.468 8.281C13.035 8.281 12.082 9.066 11.688 9.812H11.625V8.5H8.812V18H11.75V13.312C11.75 12.074 11.996 10.875 13.531 10.875C15.043 10.875 15.063 12.273 15.063 13.375V18H18V12.781C18 10.227 17.457 8.281 14.469 8.281H14.468ZM4 8.5V18H6.969V8.5H4Z" fill="black"/>
</svg>
