<svg width="30" height="30" viewBox="0 0 30 30" fill="none" xmlns="http://www.w3.org/2000/svg">
<path d="M3.75 5.76172C3.75 4.76716 4.14509 3.81333 4.84835 3.11007C5.55161 2.40681 6.50544 2.01172 7.5 2.01172C8.49456 2.01172 9.44839 2.40681 10.1517 3.11007C10.8549 3.81333 11.25 4.76716 11.25 5.76172C11.25 6.75628 10.8549 7.71011 10.1517 8.41337C9.44839 9.11663 8.49456 9.51172 7.5 9.51172C6.50544 9.51172 5.55161 9.11663 4.84835 8.41337C4.14509 7.71011 3.75 6.75628 3.75 5.76172ZM7.5 3.88672C7.00272 3.88672 6.52581 4.08426 6.17418 4.43589C5.82254 4.78752 5.625 5.26444 5.625 5.76172C5.625 6.259 5.82254 6.73591 6.17418 7.08754C6.52581 7.43917 7.00272 7.63672 7.5 7.63672C7.99728 7.63672 8.47419 7.43917 8.82582 7.08754C9.17746 6.73591 9.375 6.259 9.375 5.76172C9.375 5.26444 9.17746 4.78752 8.82582 4.43589C8.47419 4.08426 7.99728 3.88672 7.5 3.88672Z" fill="black"/>
<path d="M16.4606 8.73162C16.0678 8.43198 15.7381 8.05767 15.4903 7.6302C15.2426 7.20273 15.0818 6.73053 15.0172 6.24072C14.9525 5.75091 14.9853 5.25315 15.1136 4.77604C15.2419 4.29894 15.4633 3.85189 15.7649 3.4606C16.0665 3.0693 16.4425 2.74146 16.8712 2.49591C17.2999 2.25037 17.773 2.09197 18.2631 2.0298C18.7532 1.96764 19.2508 2.00294 19.7272 2.13368C20.2037 2.26441 20.6496 2.48801 21.0394 2.79162C21.8068 3.4055 22.3026 4.29611 22.42 5.27181C22.5375 6.24751 22.2672 7.23033 21.6674 8.0088C21.0676 8.78726 20.1861 9.29915 19.2127 9.43433C18.2393 9.56951 17.2517 9.31718 16.4625 8.73162H16.4606ZM18.75 3.88662C18.2527 3.88662 17.7758 4.08416 17.4242 4.43579C17.0725 4.78742 16.875 5.26434 16.875 5.76162C16.875 6.2589 17.0725 6.73581 17.4242 7.08744C17.7758 7.43907 18.2527 7.63662 18.75 7.63662C19.2473 7.63662 19.7242 7.43907 20.0758 7.08744C20.4275 6.73581 20.625 6.2589 20.625 5.76162C20.625 5.26434 20.4275 4.78742 20.0758 4.43579C19.7242 4.08416 19.2473 3.88662 18.75 3.88662Z" fill="black"/>
<path d="M2.8125 11.3867H7.81875C7.6125 11.9736 7.5 12.6055 7.5 13.2617H2.8125C2.56386 13.2617 2.3254 13.3605 2.14959 13.5363C1.97377 13.7121 1.875 13.9506 1.875 14.1992C1.875 15.7311 2.48438 16.8673 3.44625 17.6398C3.88875 17.9961 4.41937 18.283 5.01937 18.493C4.57877 18.9613 4.23923 19.5153 4.02187 20.1205C3.3925 19.8676 2.80322 19.5247 2.2725 19.1023C0.8625 17.968 0 16.2917 0 14.1992C0 13.4533 0.296316 12.7379 0.823762 12.2105C1.35121 11.683 2.06658 11.3867 2.8125 11.3867Z" fill="black"/>
<path d="M9.87748 11.3866C9.3802 12.2483 9.24563 13.2724 9.50338 14.2334C9.76112 15.1944 10.3901 16.0137 11.2519 16.5109C12.1136 17.0082 13.1377 17.1428 14.0987 16.885C15.0597 16.6273 15.879 15.9983 16.3762 15.1366C16.8735 14.2748 17.0081 13.2507 16.7503 12.2897C16.4926 11.3287 15.8636 10.5095 15.0019 10.0122C14.1401 9.5149 13.116 9.38033 12.155 9.63808C11.194 9.89583 10.3748 10.5248 9.87748 11.3866ZM12.705 11.4334C12.9797 11.3714 13.2649 11.3718 13.5394 11.4347C13.8139 11.4976 14.0708 11.6214 14.2911 11.7969C14.5114 11.9723 14.6895 12.1951 14.8122 12.4486C14.9349 12.7021 14.999 12.9799 15 13.2616C14.9998 13.6143 14.9002 13.9599 14.7124 14.2586C14.5247 14.5573 14.2565 14.797 13.9386 14.95C13.6208 15.1031 13.2662 15.1635 12.9156 15.1241C12.565 15.0847 12.2327 14.9472 11.9567 14.7274C11.6808 14.5076 11.4725 14.2144 11.3557 13.8815C11.2389 13.5486 11.2184 13.1895 11.2966 12.8455C11.3747 12.5014 11.5483 12.1864 11.7975 11.9367C12.0466 11.6869 12.3612 11.5125 12.705 11.4334Z" fill="black"/>
<path d="M22.8038 17.6398C22.3613 17.9961 21.8306 18.283 21.2306 18.493C21.6706 18.9615 22.0095 19.5155 22.2263 20.1205C22.8638 19.8598 23.4544 19.5205 23.9775 19.1023C25.3875 17.968 26.25 16.2917 26.25 14.1992C26.25 13.4533 25.9537 12.7379 25.4263 12.2105C24.8988 11.683 24.1834 11.3867 23.4375 11.3867H18.4313C18.6375 11.9736 18.75 12.6055 18.75 13.2617H23.4375C23.6862 13.2617 23.9246 13.3605 24.1004 13.5363C24.2763 13.7121 24.375 13.9506 24.375 14.1992C24.375 15.7311 23.7656 16.8673 22.8038 17.6398Z" fill="black"/>
<path d="M17.8125 18.8867C18.5584 18.8867 19.2738 19.183 19.8013 19.7105C20.3287 20.2379 20.625 20.9533 20.625 21.6992C20.625 23.7917 19.7644 25.468 18.3525 26.6024C16.9631 27.718 15.0994 28.2617 13.125 28.2617C11.1506 28.2617 9.28689 27.718 7.89751 26.6024C6.48751 25.468 5.62501 23.7917 5.62501 21.6992C5.62402 21.3296 5.69609 20.9634 5.83708 20.6218C5.97807 20.2801 6.1852 19.9696 6.44657 19.7083C6.70793 19.4469 7.01837 19.2398 7.36004 19.0988C7.70172 18.9578 8.06789 18.8857 8.43751 18.8867H17.8125ZM17.8125 20.7617H8.43751C8.18887 20.7617 7.95041 20.8605 7.7746 21.0363C7.59878 21.2121 7.50001 21.4506 7.50001 21.6992C7.50001 23.2311 8.10939 24.3674 9.07126 25.1399C10.0575 25.9311 11.475 26.3867 13.125 26.3867C14.775 26.3867 16.1925 25.9311 17.1788 25.1399C18.1406 24.3674 18.75 23.2311 18.75 21.6992C18.75 21.4506 18.6512 21.2121 18.4754 21.0363C18.2996 20.8605 18.0612 20.7617 17.8125 20.7617Z" fill="black"/>
</svg>
