<svg width="131" height="28" viewBox="0 0 131 28" fill="none" xmlns="http://www.w3.org/2000/svg">
<path d="M0.285156 27V1.40625H8.16016C10.4102 1.40625 12.4199 1.91602 14.1895 2.93555C15.9707 3.94336 17.3594 5.38477 18.3555 7.25977C19.3516 9.12305 19.8496 11.2441 19.8496 13.623V14.8008C19.8496 17.1797 19.3574 19.2949 18.373 21.1465C17.4004 22.998 16.0234 24.4336 14.2422 25.4531C12.4609 26.4727 10.4512 26.9883 8.21289 27H0.285156ZM5.55859 5.67773V22.7637H8.10742C10.1699 22.7637 11.7461 22.0898 12.8359 20.7422C13.9258 19.3945 14.4824 17.4668 14.5059 14.959V13.6055C14.5059 11.0039 13.9668 9.03516 12.8887 7.69922C11.8105 6.35156 10.2344 5.67773 8.16016 5.67773H5.55859ZM32.1191 27.3516C29.3301 27.3516 27.0566 26.4961 25.2988 24.7852C23.5527 23.0742 22.6797 20.7949 22.6797 17.9473V17.4551C22.6797 15.5449 23.0488 13.8398 23.7871 12.3398C24.5254 10.8281 25.5684 9.66797 26.916 8.85938C28.2754 8.03906 29.8223 7.62891 31.5566 7.62891C34.1582 7.62891 36.2031 8.44922 37.6914 10.0898C39.1914 11.7305 39.9414 14.0566 39.9414 17.0684V19.1426H27.8301C27.9941 20.3848 28.4863 21.3809 29.3066 22.1309C30.1387 22.8809 31.1875 23.2559 32.4531 23.2559C34.4102 23.2559 35.9395 22.5469 37.041 21.1289L39.5371 23.9238C38.7754 25.002 37.7441 25.8457 36.4434 26.4551C35.1426 27.0527 33.7012 27.3516 32.1191 27.3516ZM31.5391 11.7422C30.5312 11.7422 29.7109 12.082 29.0781 12.7617C28.457 13.4414 28.0586 14.4141 27.8828 15.6797H34.9492V15.2754C34.9258 14.1504 34.6211 13.2832 34.0352 12.6738C33.4492 12.0527 32.6172 11.7422 31.5391 11.7422ZM49.75 19.3711L47.9219 21.1992V27H42.8418V0H47.9219V14.959L48.9062 13.6934L53.7754 7.98047H59.875L53.002 15.9082L60.4727 27H54.6367L49.75 19.3711ZM73.0938 27C72.8594 26.543 72.6895 25.9746 72.584 25.2949C71.3535 26.666 69.7539 27.3516 67.7852 27.3516C65.9219 27.3516 64.375 26.8125 63.1445 25.7344C61.9258 24.6562 61.3164 23.2969 61.3164 21.6562C61.3164 19.6406 62.0605 18.0938 63.5488 17.0156C65.0488 15.9375 67.2109 15.3926 70.0352 15.3809H72.373V14.291C72.373 13.4121 72.1445 12.709 71.6875 12.1816C71.2422 11.6543 70.5332 11.3906 69.5605 11.3906C68.7051 11.3906 68.0312 11.5957 67.5391 12.0059C67.0586 12.416 66.8184 12.9785 66.8184 13.6934H61.7383C61.7383 12.5918 62.0781 11.5723 62.7578 10.6348C63.4375 9.69727 64.3984 8.96484 65.6406 8.4375C66.8828 7.89844 68.2773 7.62891 69.8242 7.62891C72.168 7.62891 74.0254 8.2207 75.3965 9.4043C76.7793 10.5762 77.4707 12.2285 77.4707 14.3613V22.6055C77.4824 24.4102 77.7344 25.7754 78.2266 26.7012V27H73.0938ZM68.8926 23.4668C69.6426 23.4668 70.334 23.3027 70.9668 22.9746C71.5996 22.6348 72.0684 22.1836 72.373 21.6211V18.3516H70.4746C67.9316 18.3516 66.5781 19.2305 66.4141 20.9883L66.3965 21.2871C66.3965 21.9199 66.6191 22.4414 67.0645 22.8516C67.5098 23.2617 68.1191 23.4668 68.8926 23.4668ZM87.4551 3.30469V7.98047H90.707V11.707H87.4551V21.1992C87.4551 21.9023 87.5898 22.4062 87.8594 22.7109C88.1289 23.0156 88.6445 23.168 89.4062 23.168C89.9688 23.168 90.4668 23.127 90.9004 23.0449V26.8945C89.9043 27.1992 88.8789 27.3516 87.8242 27.3516C84.2617 27.3516 82.4453 25.5527 82.375 21.9551V11.707H79.5977V7.98047H82.375V3.30469H87.4551Z" fill="black"/>
<path d="M93.8008 24.5039C93.8008 23.6953 94.0703 23.0391 94.6094 22.5352C95.1602 22.0312 95.8457 21.7793 96.666 21.7793C97.498 21.7793 98.1836 22.0312 98.7227 22.5352C99.2734 23.0391 99.5488 23.6953 99.5488 24.5039C99.5488 25.3008 99.2793 25.9512 98.7402 26.4551C98.2012 26.9473 97.5098 27.1934 96.666 27.1934C95.834 27.1934 95.1484 26.9473 94.6094 26.4551C94.0703 25.9512 93.8008 25.3008 93.8008 24.5039ZM109.955 27H104.682V1.40625H109.955V27ZM119.201 7.98047L119.359 10.1777C120.719 8.47852 122.541 7.62891 124.826 7.62891C126.842 7.62891 128.342 8.2207 129.326 9.4043C130.311 10.5879 130.814 12.3574 130.838 14.7129V27H125.758V14.8359C125.758 13.7578 125.523 12.9785 125.055 12.498C124.586 12.0059 123.807 11.7598 122.717 11.7598C121.287 11.7598 120.215 12.3691 119.5 13.5879V27H114.42V7.98047H119.201Z" fill="#0099BE"/>
</svg>
