<svg width="28" height="27" viewBox="0 0 28 27" fill="none" xmlns="http://www.w3.org/2000/svg">
<path d="M16.6953 21.9829C21.4298 21.9829 23.7976 21.9829 25.2678 20.5115C26.7392 19.0413 26.7392 16.6734 26.7392 11.939C26.7392 7.2045 26.7392 4.83664 25.2678 3.36646C23.7976 1.89502 21.4298 1.89502 16.6953 1.89502H11.6733C6.93887 1.89502 4.57101 1.89502 3.10083 3.36646C1.62939 4.83664 1.62939 7.2045 1.62939 11.939C1.62939 16.6734 1.62939 19.0413 3.10083 20.5115C3.92067 21.3326 5.01922 21.6954 6.65136 21.8548" stroke="black" stroke-width="2" stroke-linecap="round" stroke-linejoin="round"/>
<path d="M14.1841 11.939V11.9539" stroke="black" stroke-width="2" stroke-linecap="round"/>
<path d="M7.90674 11.939V11.9539" stroke="black" stroke-width="2" stroke-linecap="round"/>
<path d="M20.4619 11.939V11.9539" stroke="black" stroke-width="2" stroke-linecap="round"/>
<path d="M16.6956 21.9828C15.1438 21.9828 13.4339 22.6106 11.8733 23.4204C9.36481 24.7223 8.11057 25.3739 7.49287 24.9584C6.87517 24.5441 6.99193 23.2572 7.2267 20.6847L7.27943 20.0996" stroke="black" stroke-width="2" stroke-linecap="round"/>
</svg>
