<svg width="27" height="28" viewBox="0 0 27 28" fill="none" xmlns="http://www.w3.org/2000/svg">
<path d="M7.9426 12.8662L12.331 2.99219C13.204 2.99219 14.0411 3.33895 14.6584 3.9562C15.2756 4.57344 15.6224 5.41061 15.6224 6.28353V10.672H21.832C22.1501 10.6684 22.4651 10.734 22.7553 10.8642C23.0455 10.9945 23.3039 11.1862 23.5127 11.4263C23.7214 11.6663 23.8754 11.9488 23.9641 12.2543C24.0528 12.5598 24.074 12.8809 24.0263 13.1953L22.5123 23.0694C22.4329 23.5926 22.1671 24.0695 21.7639 24.4122C21.3607 24.755 20.8472 24.9404 20.318 24.9344H7.9426M7.9426 12.8662V24.9344M7.9426 12.8662H4.65126C4.06931 12.8662 3.5112 13.0974 3.0997 13.5089C2.68821 13.9204 2.45703 14.4785 2.45703 15.0604V22.7402C2.45703 23.3222 2.68821 23.8803 3.0997 24.2918C3.5112 24.7033 4.06931 24.9344 4.65126 24.9344H7.9426" stroke="black" stroke-width="2" stroke-linecap="round" stroke-linejoin="round"/>
</svg>
